<?xml version="1.0" standalone="no"?>
<!DOCTYPE svg PUBLIC "-//W3C//DTD SVG 20010904//EN"
 "http://www.w3.org/TR/2001/REC-SVG-20010904/DTD/svg10.dtd">
<svg version="1.0" xmlns="http://www.w3.org/2000/svg"
 width="1000.000000pt" height="1000.000000pt" viewBox="0 0 1000.000000 1000.000000"
 preserveAspectRatio="xMidYMid meet">

<g transform="translate(0.000000,1000.000000) scale(0.100000,-0.100000)"
fill="#000000" stroke="none">
<path d="M5390 6725 c-22 -11 -126 -259 -682 -1617 -361 -881 -659 -1615 -663
-1630 -5 -19 -1 -32 15 -48 20 -20 26 -21 330 -18 259 3 312 5 324 18 18 18
1326 3234 1326 3260 0 10 -10 26 -22 34 -19 14 -66 16 -313 16 -227 -1 -296
-4 -315 -15z"/>
<path d="M3310 6166 c-439 -204 -2031 -970 -2055 -989 l-30 -24 -3 -191 c-4
-235 -4 -234 105 -287 684 -331 2070 -985 2088 -985 52 0 55 17 55 362 l0 318
-27 29 c-22 23 -163 85 -661 287 -348 141 -629 261 -625 265 4 4 289 121 633
259 490 198 631 258 653 281 l27 29 0 325 c0 312 -1 326 -20 345 -11 11 -26
20 -32 20 -7 0 -56 -20 -108 -44z"/>
<path d="M6645 6186 l-25 -25 0 -311 c0 -340 2 -355 58 -384 15 -7 302 -125
637 -261 336 -136 613 -250 618 -254 4 -4 -277 -123 -625 -266 -383 -156 -643
-267 -658 -282 l-25 -23 -3 -318 c-2 -345 0 -364 50 -370 35 -4 2143 998 2176
1034 21 24 22 32 22 219 l0 195 -27 29 c-20 21 -336 176 -1078 529 -577 275
-1060 503 -1072 506 -17 5 -29 1 -48 -18z"/>
</g>
</svg>
